<svg xmlns="http://www.w3.org/2000/svg" viewBox="0 0 140 82" width="140" height="82">

  <!-- ── "i" ── -->
  <rect x="0" y="2" width="14" height="57" rx="7" fill="#ffffff"/>

  <!-- ── "s" ── -->
  <path
    d="M 68 8 H 47 C 32 8 28 18 28 24 C 28 34 39 36 50 36 H 57 C 68 36 73 42 73 50 C 73 59 63 62 50 62 H 28"
    stroke="#ffffff"
    stroke-width="14"
    stroke-linecap="round"
    stroke-linejoin="round"
    fill="none"
  />

  <!-- ── "a" ── -->
  <path
    d="M 135 33 L 135 53 Q 135 62 126 62 L 97 62 Q 88 62 88 53 L 88 11 Q 88 2 97 2 L 126 2 Q 135 2 135 11 L 135 24"
    stroke="#ffffff"
    stroke-width="14"
    stroke-linecap="round"
    stroke-linejoin="round"
    fill="none"
  />

  <!-- ── "SAÚDE" ── -->
  <text
    x="4" y="78"
    fill="rgba(255,255,255,0.85)"
    font-family="Arial, Helvetica, sans-serif"
    font-weight="700"
    font-size="10"
    letter-spacing="2.5"
  >SAÚDE</text>

</svg>
